%TF.GenerationSoftware,KiCad,Pcbnew,(6.0.11)*%
%TF.CreationDate,2023-03-06T21:30:59-06:00*%
%TF.ProjectId,ps2-to-parallel-keyboard-adapter,7073322d-746f-42d7-9061-72616c6c656c,rev?*%
%TF.SameCoordinates,Original*%
%TF.FileFunction,Legend,Top*%
%TF.FilePolarity,Positive*%
%FSLAX46Y46*%
G04 Gerber Fmt 4.6, Leading zero omitted, Abs format (unit mm)*
G04 Created by KiCad (PCBNEW (6.0.11)) date 2023-03-06 21:30:59*
%MOMM*%
%LPD*%
G01*
G04 APERTURE LIST*
%ADD10C,0.150000*%
%ADD11C,0.120000*%
%ADD12C,0.127000*%
%ADD13C,0.200000*%
G04 APERTURE END LIST*
D10*
X189825380Y-108759047D02*
X190539666Y-108759047D01*
X190682523Y-108806666D01*
X190777761Y-108901904D01*
X190825380Y-109044761D01*
X190825380Y-109140000D01*
X190825380Y-107806666D02*
X190825380Y-108282857D01*
X189825380Y-108282857D01*
X190730142Y-106901904D02*
X190777761Y-106949523D01*
X190825380Y-107092380D01*
X190825380Y-107187619D01*
X190777761Y-107330476D01*
X190682523Y-107425714D01*
X190587285Y-107473333D01*
X190396809Y-107520952D01*
X190253952Y-107520952D01*
X190063476Y-107473333D01*
X189968238Y-107425714D01*
X189873000Y-107330476D01*
X189825380Y-107187619D01*
X189825380Y-107092380D01*
X189873000Y-106949523D01*
X189920619Y-106901904D01*
X189825380Y-106187619D02*
X190539666Y-106187619D01*
X190682523Y-106235238D01*
X190777761Y-106330476D01*
X190825380Y-106473333D01*
X190825380Y-106568571D01*
X190825380Y-105235238D02*
X190825380Y-105711428D01*
X189825380Y-105711428D01*
X190730142Y-104330476D02*
X190777761Y-104378095D01*
X190825380Y-104520952D01*
X190825380Y-104616190D01*
X190777761Y-104759047D01*
X190682523Y-104854285D01*
X190587285Y-104901904D01*
X190396809Y-104949523D01*
X190253952Y-104949523D01*
X190063476Y-104901904D01*
X189968238Y-104854285D01*
X189873000Y-104759047D01*
X189825380Y-104616190D01*
X189825380Y-104520952D01*
X189873000Y-104378095D01*
X189920619Y-104330476D01*
X189825380Y-103616190D02*
X190539666Y-103616190D01*
X190682523Y-103663809D01*
X190777761Y-103759047D01*
X190825380Y-103901904D01*
X190825380Y-103997142D01*
X190825380Y-102663809D02*
X190825380Y-103140000D01*
X189825380Y-103140000D01*
X190730142Y-101759047D02*
X190777761Y-101806666D01*
X190825380Y-101949523D01*
X190825380Y-102044761D01*
X190777761Y-102187619D01*
X190682523Y-102282857D01*
X190587285Y-102330476D01*
X190396809Y-102378095D01*
X190253952Y-102378095D01*
X190063476Y-102330476D01*
X189968238Y-102282857D01*
X189873000Y-102187619D01*
X189825380Y-102044761D01*
X189825380Y-101949523D01*
X189873000Y-101806666D01*
X189920619Y-101759047D01*
X189825380Y-101044761D02*
X190539666Y-101044761D01*
X190682523Y-101092380D01*
X190777761Y-101187619D01*
X190825380Y-101330476D01*
X190825380Y-101425714D01*
X190825380Y-100092380D02*
X190825380Y-100568571D01*
X189825380Y-100568571D01*
X190730142Y-99187619D02*
X190777761Y-99235238D01*
X190825380Y-99378095D01*
X190825380Y-99473333D01*
X190777761Y-99616190D01*
X190682523Y-99711428D01*
X190587285Y-99759047D01*
X190396809Y-99806666D01*
X190253952Y-99806666D01*
X190063476Y-99759047D01*
X189968238Y-99711428D01*
X189873000Y-99616190D01*
X189825380Y-99473333D01*
X189825380Y-99378095D01*
X189873000Y-99235238D01*
X189920619Y-99187619D01*
X146401904Y-112561714D02*
X146401904Y-113371238D01*
X146354285Y-113466476D01*
X146306666Y-113514095D01*
X146211428Y-113561714D01*
X146068571Y-113561714D01*
X145973333Y-113514095D01*
X146401904Y-113180761D02*
X146306666Y-113228380D01*
X146116190Y-113228380D01*
X146020952Y-113180761D01*
X145973333Y-113133142D01*
X145925714Y-113037904D01*
X145925714Y-112752190D01*
X145973333Y-112656952D01*
X146020952Y-112609333D01*
X146116190Y-112561714D01*
X146306666Y-112561714D01*
X146401904Y-112609333D01*
X146878095Y-113228380D02*
X146878095Y-112561714D01*
X146878095Y-112228380D02*
X146830476Y-112276000D01*
X146878095Y-112323619D01*
X146925714Y-112276000D01*
X146878095Y-112228380D01*
X146878095Y-112323619D01*
X147211428Y-112561714D02*
X147592380Y-112561714D01*
X147354285Y-112228380D02*
X147354285Y-113085523D01*
X147401904Y-113180761D01*
X147497142Y-113228380D01*
X147592380Y-113228380D01*
X147925714Y-113228380D02*
X147925714Y-112228380D01*
X148354285Y-113228380D02*
X148354285Y-112704571D01*
X148306666Y-112609333D01*
X148211428Y-112561714D01*
X148068571Y-112561714D01*
X147973333Y-112609333D01*
X147925714Y-112656952D01*
X149259047Y-112561714D02*
X149259047Y-113228380D01*
X148830476Y-112561714D02*
X148830476Y-113085523D01*
X148878095Y-113180761D01*
X148973333Y-113228380D01*
X149116190Y-113228380D01*
X149211428Y-113180761D01*
X149259047Y-113133142D01*
X149735238Y-113228380D02*
X149735238Y-112228380D01*
X149735238Y-112609333D02*
X149830476Y-112561714D01*
X150020952Y-112561714D01*
X150116190Y-112609333D01*
X150163809Y-112656952D01*
X150211428Y-112752190D01*
X150211428Y-113037904D01*
X150163809Y-113133142D01*
X150116190Y-113180761D01*
X150020952Y-113228380D01*
X149830476Y-113228380D01*
X149735238Y-113180761D01*
X150640000Y-113133142D02*
X150687619Y-113180761D01*
X150640000Y-113228380D01*
X150592380Y-113180761D01*
X150640000Y-113133142D01*
X150640000Y-113228380D01*
X151544761Y-113180761D02*
X151449523Y-113228380D01*
X151259047Y-113228380D01*
X151163809Y-113180761D01*
X151116190Y-113133142D01*
X151068571Y-113037904D01*
X151068571Y-112752190D01*
X151116190Y-112656952D01*
X151163809Y-112609333D01*
X151259047Y-112561714D01*
X151449523Y-112561714D01*
X151544761Y-112609333D01*
X152116190Y-113228380D02*
X152020952Y-113180761D01*
X151973333Y-113133142D01*
X151925714Y-113037904D01*
X151925714Y-112752190D01*
X151973333Y-112656952D01*
X152020952Y-112609333D01*
X152116190Y-112561714D01*
X152259047Y-112561714D01*
X152354285Y-112609333D01*
X152401904Y-112656952D01*
X152449523Y-112752190D01*
X152449523Y-113037904D01*
X152401904Y-113133142D01*
X152354285Y-113180761D01*
X152259047Y-113228380D01*
X152116190Y-113228380D01*
X152878095Y-113228380D02*
X152878095Y-112561714D01*
X152878095Y-112656952D02*
X152925714Y-112609333D01*
X153020952Y-112561714D01*
X153163809Y-112561714D01*
X153259047Y-112609333D01*
X153306666Y-112704571D01*
X153306666Y-113228380D01*
X153306666Y-112704571D02*
X153354285Y-112609333D01*
X153449523Y-112561714D01*
X153592380Y-112561714D01*
X153687619Y-112609333D01*
X153735238Y-112704571D01*
X153735238Y-113228380D01*
X154925714Y-112180761D02*
X154068571Y-113466476D01*
X155687619Y-113228380D02*
X155687619Y-112228380D01*
X155687619Y-113180761D02*
X155592380Y-113228380D01*
X155401904Y-113228380D01*
X155306666Y-113180761D01*
X155259047Y-113133142D01*
X155211428Y-113037904D01*
X155211428Y-112752190D01*
X155259047Y-112656952D01*
X155306666Y-112609333D01*
X155401904Y-112561714D01*
X155592380Y-112561714D01*
X155687619Y-112609333D01*
X156163809Y-112561714D02*
X156163809Y-113418857D01*
X156116190Y-113514095D01*
X156020952Y-113561714D01*
X155973333Y-113561714D01*
X156163809Y-112228380D02*
X156116190Y-112276000D01*
X156163809Y-112323619D01*
X156211428Y-112276000D01*
X156163809Y-112228380D01*
X156163809Y-112323619D01*
X156497142Y-112561714D02*
X156878095Y-112561714D01*
X156640000Y-112228380D02*
X156640000Y-113085523D01*
X156687619Y-113180761D01*
X156782857Y-113228380D01*
X156878095Y-113228380D01*
X157592380Y-113180761D02*
X157497142Y-113228380D01*
X157306666Y-113228380D01*
X157211428Y-113180761D01*
X157163809Y-113085523D01*
X157163809Y-112704571D01*
X157211428Y-112609333D01*
X157306666Y-112561714D01*
X157497142Y-112561714D01*
X157592380Y-112609333D01*
X157640000Y-112704571D01*
X157640000Y-112799809D01*
X157163809Y-112895047D01*
X158068571Y-113228380D02*
X158068571Y-112561714D01*
X158068571Y-112752190D02*
X158116190Y-112656952D01*
X158163809Y-112609333D01*
X158259047Y-112561714D01*
X158354285Y-112561714D01*
X158640000Y-113180761D02*
X158735238Y-113228380D01*
X158925714Y-113228380D01*
X159020952Y-113180761D01*
X159068571Y-113085523D01*
X159068571Y-113037904D01*
X159020952Y-112942666D01*
X158925714Y-112895047D01*
X158782857Y-112895047D01*
X158687619Y-112847428D01*
X158640000Y-112752190D01*
X158640000Y-112704571D01*
X158687619Y-112609333D01*
X158782857Y-112561714D01*
X158925714Y-112561714D01*
X159020952Y-112609333D01*
X159354285Y-112561714D02*
X159735238Y-112561714D01*
X159497142Y-112228380D02*
X159497142Y-113085523D01*
X159544761Y-113180761D01*
X159640000Y-113228380D01*
X159735238Y-113228380D01*
X160449523Y-113180761D02*
X160354285Y-113228380D01*
X160163809Y-113228380D01*
X160068571Y-113180761D01*
X160020952Y-113085523D01*
X160020952Y-112704571D01*
X160068571Y-112609333D01*
X160163809Y-112561714D01*
X160354285Y-112561714D01*
X160449523Y-112609333D01*
X160497142Y-112704571D01*
X160497142Y-112799809D01*
X160020952Y-112895047D01*
X161306666Y-113180761D02*
X161211428Y-113228380D01*
X161020952Y-113228380D01*
X160925714Y-113180761D01*
X160878095Y-113085523D01*
X160878095Y-112704571D01*
X160925714Y-112609333D01*
X161020952Y-112561714D01*
X161211428Y-112561714D01*
X161306666Y-112609333D01*
X161354285Y-112704571D01*
X161354285Y-112799809D01*
X160878095Y-112895047D01*
X162211428Y-112561714D02*
X162211428Y-113371238D01*
X162163809Y-113466476D01*
X162116190Y-113514095D01*
X162020952Y-113561714D01*
X161878095Y-113561714D01*
X161782857Y-113514095D01*
X162211428Y-113180761D02*
X162116190Y-113228380D01*
X161925714Y-113228380D01*
X161830476Y-113180761D01*
X161782857Y-113133142D01*
X161735238Y-113037904D01*
X161735238Y-112752190D01*
X161782857Y-112656952D01*
X161830476Y-112609333D01*
X161925714Y-112561714D01*
X162116190Y-112561714D01*
X162211428Y-112609333D01*
X163116190Y-113180761D02*
X163020952Y-113228380D01*
X162830476Y-113228380D01*
X162735238Y-113180761D01*
X162687619Y-113133142D01*
X162640000Y-113037904D01*
X162640000Y-112752190D01*
X162687619Y-112656952D01*
X162735238Y-112609333D01*
X162830476Y-112561714D01*
X163020952Y-112561714D01*
X163116190Y-112609333D01*
X164259047Y-112180761D02*
X163401904Y-113466476D01*
X164449523Y-112561714D02*
X164830476Y-112561714D01*
X164592380Y-113228380D02*
X164592380Y-112371238D01*
X164640000Y-112276000D01*
X164735238Y-112228380D01*
X164830476Y-112228380D01*
X165544761Y-113180761D02*
X165449523Y-113228380D01*
X165259047Y-113228380D01*
X165163809Y-113180761D01*
X165116190Y-113085523D01*
X165116190Y-112704571D01*
X165163809Y-112609333D01*
X165259047Y-112561714D01*
X165449523Y-112561714D01*
X165544761Y-112609333D01*
X165592380Y-112704571D01*
X165592380Y-112799809D01*
X165116190Y-112895047D01*
X166020952Y-113228380D02*
X166020952Y-112561714D01*
X166020952Y-112752190D02*
X166068571Y-112656952D01*
X166116190Y-112609333D01*
X166211428Y-112561714D01*
X166306666Y-112561714D01*
X167068571Y-112561714D02*
X167068571Y-113371238D01*
X167020952Y-113466476D01*
X166973333Y-113514095D01*
X166878095Y-113561714D01*
X166735238Y-113561714D01*
X166640000Y-113514095D01*
X167068571Y-113180761D02*
X166973333Y-113228380D01*
X166782857Y-113228380D01*
X166687619Y-113180761D01*
X166640000Y-113133142D01*
X166592380Y-113037904D01*
X166592380Y-112752190D01*
X166640000Y-112656952D01*
X166687619Y-112609333D01*
X166782857Y-112561714D01*
X166973333Y-112561714D01*
X167068571Y-112609333D01*
X167973333Y-112561714D02*
X167973333Y-113228380D01*
X167544761Y-112561714D02*
X167544761Y-113085523D01*
X167592380Y-113180761D01*
X167687619Y-113228380D01*
X167830476Y-113228380D01*
X167925714Y-113180761D01*
X167973333Y-113133142D01*
X168401904Y-113180761D02*
X168497142Y-113228380D01*
X168687619Y-113228380D01*
X168782857Y-113180761D01*
X168830476Y-113085523D01*
X168830476Y-113037904D01*
X168782857Y-112942666D01*
X168687619Y-112895047D01*
X168544761Y-112895047D01*
X168449523Y-112847428D01*
X168401904Y-112752190D01*
X168401904Y-112704571D01*
X168449523Y-112609333D01*
X168544761Y-112561714D01*
X168687619Y-112561714D01*
X168782857Y-112609333D01*
X169401904Y-113228380D02*
X169306666Y-113180761D01*
X169259047Y-113133142D01*
X169211428Y-113037904D01*
X169211428Y-112752190D01*
X169259047Y-112656952D01*
X169306666Y-112609333D01*
X169401904Y-112561714D01*
X169544761Y-112561714D01*
X169640000Y-112609333D01*
X169687619Y-112656952D01*
X169735238Y-112752190D01*
X169735238Y-113037904D01*
X169687619Y-113133142D01*
X169640000Y-113180761D01*
X169544761Y-113228380D01*
X169401904Y-113228380D01*
X170163809Y-112561714D02*
X170163809Y-113228380D01*
X170163809Y-112656952D02*
X170211428Y-112609333D01*
X170306666Y-112561714D01*
X170449523Y-112561714D01*
X170544761Y-112609333D01*
X170592380Y-112704571D01*
X170592380Y-113228380D01*
X171068571Y-112847428D02*
X171830476Y-112847428D01*
X172306666Y-112561714D02*
X172306666Y-113561714D01*
X172306666Y-112609333D02*
X172401904Y-112561714D01*
X172592380Y-112561714D01*
X172687619Y-112609333D01*
X172735238Y-112656952D01*
X172782857Y-112752190D01*
X172782857Y-113037904D01*
X172735238Y-113133142D01*
X172687619Y-113180761D01*
X172592380Y-113228380D01*
X172401904Y-113228380D01*
X172306666Y-113180761D01*
X173163809Y-113180761D02*
X173259047Y-113228380D01*
X173449523Y-113228380D01*
X173544761Y-113180761D01*
X173592380Y-113085523D01*
X173592380Y-113037904D01*
X173544761Y-112942666D01*
X173449523Y-112895047D01*
X173306666Y-112895047D01*
X173211428Y-112847428D01*
X173163809Y-112752190D01*
X173163809Y-112704571D01*
X173211428Y-112609333D01*
X173306666Y-112561714D01*
X173449523Y-112561714D01*
X173544761Y-112609333D01*
X173973333Y-112323619D02*
X174020952Y-112276000D01*
X174116190Y-112228380D01*
X174354285Y-112228380D01*
X174449523Y-112276000D01*
X174497142Y-112323619D01*
X174544761Y-112418857D01*
X174544761Y-112514095D01*
X174497142Y-112656952D01*
X173925714Y-113228380D01*
X174544761Y-113228380D01*
X174973333Y-112847428D02*
X175735238Y-112847428D01*
X176211428Y-113228380D02*
X176211428Y-112228380D01*
X176306666Y-112847428D02*
X176592380Y-113228380D01*
X176592380Y-112561714D02*
X176211428Y-112942666D01*
X177401904Y-113180761D02*
X177306666Y-113228380D01*
X177116190Y-113228380D01*
X177020952Y-113180761D01*
X176973333Y-113085523D01*
X176973333Y-112704571D01*
X177020952Y-112609333D01*
X177116190Y-112561714D01*
X177306666Y-112561714D01*
X177401904Y-112609333D01*
X177449523Y-112704571D01*
X177449523Y-112799809D01*
X176973333Y-112895047D01*
X177782857Y-112561714D02*
X178020952Y-113228380D01*
X178259047Y-112561714D02*
X178020952Y-113228380D01*
X177925714Y-113466476D01*
X177878095Y-113514095D01*
X177782857Y-113561714D01*
X178640000Y-113228380D02*
X178640000Y-112228380D01*
X178640000Y-112609333D02*
X178735238Y-112561714D01*
X178925714Y-112561714D01*
X179020952Y-112609333D01*
X179068571Y-112656952D01*
X179116190Y-112752190D01*
X179116190Y-113037904D01*
X179068571Y-113133142D01*
X179020952Y-113180761D01*
X178925714Y-113228380D01*
X178735238Y-113228380D01*
X178640000Y-113180761D01*
X179687619Y-113228380D02*
X179592380Y-113180761D01*
X179544761Y-113133142D01*
X179497142Y-113037904D01*
X179497142Y-112752190D01*
X179544761Y-112656952D01*
X179592380Y-112609333D01*
X179687619Y-112561714D01*
X179830476Y-112561714D01*
X179925714Y-112609333D01*
X179973333Y-112656952D01*
X180020952Y-112752190D01*
X180020952Y-113037904D01*
X179973333Y-113133142D01*
X179925714Y-113180761D01*
X179830476Y-113228380D01*
X179687619Y-113228380D01*
X180878095Y-113228380D02*
X180878095Y-112704571D01*
X180830476Y-112609333D01*
X180735238Y-112561714D01*
X180544761Y-112561714D01*
X180449523Y-112609333D01*
X180878095Y-113180761D02*
X180782857Y-113228380D01*
X180544761Y-113228380D01*
X180449523Y-113180761D01*
X180401904Y-113085523D01*
X180401904Y-112990285D01*
X180449523Y-112895047D01*
X180544761Y-112847428D01*
X180782857Y-112847428D01*
X180878095Y-112799809D01*
X181354285Y-113228380D02*
X181354285Y-112561714D01*
X181354285Y-112752190D02*
X181401904Y-112656952D01*
X181449523Y-112609333D01*
X181544761Y-112561714D01*
X181639999Y-112561714D01*
X182401904Y-113228380D02*
X182401904Y-112228380D01*
X182401904Y-113180761D02*
X182306666Y-113228380D01*
X182116190Y-113228380D01*
X182020952Y-113180761D01*
X181973333Y-113133142D01*
X181925714Y-113037904D01*
X181925714Y-112752190D01*
X181973333Y-112656952D01*
X182020952Y-112609333D01*
X182116190Y-112561714D01*
X182306666Y-112561714D01*
X182401904Y-112609333D01*
X182878095Y-112847428D02*
X183639999Y-112847428D01*
X184544761Y-113228380D02*
X184544761Y-112704571D01*
X184497142Y-112609333D01*
X184401904Y-112561714D01*
X184211428Y-112561714D01*
X184116190Y-112609333D01*
X184544761Y-113180761D02*
X184449523Y-113228380D01*
X184211428Y-113228380D01*
X184116190Y-113180761D01*
X184068571Y-113085523D01*
X184068571Y-112990285D01*
X184116190Y-112895047D01*
X184211428Y-112847428D01*
X184449523Y-112847428D01*
X184544761Y-112799809D01*
X185449523Y-113228380D02*
X185449523Y-112228380D01*
X185449523Y-113180761D02*
X185354285Y-113228380D01*
X185163809Y-113228380D01*
X185068571Y-113180761D01*
X185020952Y-113133142D01*
X184973333Y-113037904D01*
X184973333Y-112752190D01*
X185020952Y-112656952D01*
X185068571Y-112609333D01*
X185163809Y-112561714D01*
X185354285Y-112561714D01*
X185449523Y-112609333D01*
X186354285Y-113228380D02*
X186354285Y-112704571D01*
X186306666Y-112609333D01*
X186211428Y-112561714D01*
X186020952Y-112561714D01*
X185925714Y-112609333D01*
X186354285Y-113180761D02*
X186259047Y-113228380D01*
X186020952Y-113228380D01*
X185925714Y-113180761D01*
X185878095Y-113085523D01*
X185878095Y-112990285D01*
X185925714Y-112895047D01*
X186020952Y-112847428D01*
X186259047Y-112847428D01*
X186354285Y-112799809D01*
X186830476Y-112561714D02*
X186830476Y-113561714D01*
X186830476Y-112609333D02*
X186925714Y-112561714D01*
X187116190Y-112561714D01*
X187211428Y-112609333D01*
X187259047Y-112656952D01*
X187306666Y-112752190D01*
X187306666Y-113037904D01*
X187259047Y-113133142D01*
X187211428Y-113180761D01*
X187116190Y-113228380D01*
X186925714Y-113228380D01*
X186830476Y-113180761D01*
X187592380Y-112561714D02*
X187973333Y-112561714D01*
X187735238Y-112228380D02*
X187735238Y-113085523D01*
X187782857Y-113180761D01*
X187878095Y-113228380D01*
X187973333Y-113228380D01*
X188687619Y-113180761D02*
X188592380Y-113228380D01*
X188401904Y-113228380D01*
X188306666Y-113180761D01*
X188259047Y-113085523D01*
X188259047Y-112704571D01*
X188306666Y-112609333D01*
X188401904Y-112561714D01*
X188592380Y-112561714D01*
X188687619Y-112609333D01*
X188735238Y-112704571D01*
X188735238Y-112799809D01*
X188259047Y-112895047D01*
X189163809Y-113228380D02*
X189163809Y-112561714D01*
X189163809Y-112752190D02*
X189211428Y-112656952D01*
X189259047Y-112609333D01*
X189354285Y-112561714D01*
X189449523Y-112561714D01*
X188919028Y-95010314D02*
X189157123Y-95676980D01*
X189395219Y-95010314D01*
X190299980Y-95676980D02*
X189728552Y-95676980D01*
X190014266Y-95676980D02*
X190014266Y-94676980D01*
X189919028Y-94819838D01*
X189823790Y-94915076D01*
X189728552Y-94962695D01*
X190728552Y-95581742D02*
X190776171Y-95629361D01*
X190728552Y-95676980D01*
X190680933Y-95629361D01*
X190728552Y-95581742D01*
X190728552Y-95676980D01*
X191395219Y-94676980D02*
X191490457Y-94676980D01*
X191585695Y-94724600D01*
X191633314Y-94772219D01*
X191680933Y-94867457D01*
X191728552Y-95057933D01*
X191728552Y-95296028D01*
X191680933Y-95486504D01*
X191633314Y-95581742D01*
X191585695Y-95629361D01*
X191490457Y-95676980D01*
X191395219Y-95676980D01*
X191299980Y-95629361D01*
X191252361Y-95581742D01*
X191204742Y-95486504D01*
X191157123Y-95296028D01*
X191157123Y-95057933D01*
X191204742Y-94867457D01*
X191252361Y-94772219D01*
X191299980Y-94724600D01*
X191395219Y-94676980D01*
%TO.C,R1*%
X156662380Y-100496666D02*
X156186190Y-100830000D01*
X156662380Y-101068095D02*
X155662380Y-101068095D01*
X155662380Y-100687142D01*
X155710000Y-100591904D01*
X155757619Y-100544285D01*
X155852857Y-100496666D01*
X155995714Y-100496666D01*
X156090952Y-100544285D01*
X156138571Y-100591904D01*
X156186190Y-100687142D01*
X156186190Y-101068095D01*
X156662380Y-99544285D02*
X156662380Y-100115714D01*
X156662380Y-99830000D02*
X155662380Y-99830000D01*
X155805238Y-99925238D01*
X155900476Y-100020476D01*
X155948095Y-100115714D01*
X161107523Y-100762380D02*
X160536095Y-100762380D01*
X160821809Y-100762380D02*
X160821809Y-99762380D01*
X160726571Y-99905238D01*
X160631333Y-100000476D01*
X160536095Y-100048095D01*
X161726571Y-99762380D02*
X161821809Y-99762380D01*
X161917047Y-99810000D01*
X161964666Y-99857619D01*
X162012285Y-99952857D01*
X162059904Y-100143333D01*
X162059904Y-100381428D01*
X162012285Y-100571904D01*
X161964666Y-100667142D01*
X161917047Y-100714761D01*
X161821809Y-100762380D01*
X161726571Y-100762380D01*
X161631333Y-100714761D01*
X161583714Y-100667142D01*
X161536095Y-100571904D01*
X161488476Y-100381428D01*
X161488476Y-100143333D01*
X161536095Y-99952857D01*
X161583714Y-99857619D01*
X161631333Y-99810000D01*
X161726571Y-99762380D01*
X162488476Y-100762380D02*
X162488476Y-99762380D01*
X163059904Y-100762380D02*
X162631333Y-100190952D01*
X163059904Y-99762380D02*
X162488476Y-100333809D01*
%TO.C,C1*%
X144613333Y-95647142D02*
X144565714Y-95694761D01*
X144422857Y-95742380D01*
X144327619Y-95742380D01*
X144184761Y-95694761D01*
X144089523Y-95599523D01*
X144041904Y-95504285D01*
X143994285Y-95313809D01*
X143994285Y-95170952D01*
X144041904Y-94980476D01*
X144089523Y-94885238D01*
X144184761Y-94790000D01*
X144327619Y-94742380D01*
X144422857Y-94742380D01*
X144565714Y-94790000D01*
X144613333Y-94837619D01*
X145565714Y-95742380D02*
X144994285Y-95742380D01*
X145280000Y-95742380D02*
X145280000Y-94742380D01*
X145184761Y-94885238D01*
X145089523Y-94980476D01*
X144994285Y-95028095D01*
%TO.C,U1*%
X152682380Y-101061904D02*
X153491904Y-101061904D01*
X153587142Y-101014285D01*
X153634761Y-100966666D01*
X153682380Y-100871428D01*
X153682380Y-100680952D01*
X153634761Y-100585714D01*
X153587142Y-100538095D01*
X153491904Y-100490476D01*
X152682380Y-100490476D01*
X153682380Y-99490476D02*
X153682380Y-100061904D01*
X153682380Y-99776190D02*
X152682380Y-99776190D01*
X152825238Y-99871428D01*
X152920476Y-99966666D01*
X152968095Y-100061904D01*
X168323095Y-100782380D02*
X168323095Y-99782380D01*
X168704047Y-99782380D01*
X168799285Y-99830000D01*
X168846904Y-99877619D01*
X168894523Y-99972857D01*
X168894523Y-100115714D01*
X168846904Y-100210952D01*
X168799285Y-100258571D01*
X168704047Y-100306190D01*
X168323095Y-100306190D01*
X169323095Y-100782380D02*
X169323095Y-99782380D01*
X170370714Y-100687142D02*
X170323095Y-100734761D01*
X170180238Y-100782380D01*
X170085000Y-100782380D01*
X169942142Y-100734761D01*
X169846904Y-100639523D01*
X169799285Y-100544285D01*
X169751666Y-100353809D01*
X169751666Y-100210952D01*
X169799285Y-100020476D01*
X169846904Y-99925238D01*
X169942142Y-99830000D01*
X170085000Y-99782380D01*
X170180238Y-99782380D01*
X170323095Y-99830000D01*
X170370714Y-99877619D01*
X171323095Y-100782380D02*
X170751666Y-100782380D01*
X171037380Y-100782380D02*
X171037380Y-99782380D01*
X170942142Y-99925238D01*
X170846904Y-100020476D01*
X170751666Y-100068095D01*
X172180238Y-99782380D02*
X171989761Y-99782380D01*
X171894523Y-99830000D01*
X171846904Y-99877619D01*
X171751666Y-100020476D01*
X171704047Y-100210952D01*
X171704047Y-100591904D01*
X171751666Y-100687142D01*
X171799285Y-100734761D01*
X171894523Y-100782380D01*
X172085000Y-100782380D01*
X172180238Y-100734761D01*
X172227857Y-100687142D01*
X172275476Y-100591904D01*
X172275476Y-100353809D01*
X172227857Y-100258571D01*
X172180238Y-100210952D01*
X172085000Y-100163333D01*
X171894523Y-100163333D01*
X171799285Y-100210952D01*
X171751666Y-100258571D01*
X171704047Y-100353809D01*
X173037380Y-100258571D02*
X172704047Y-100258571D01*
X172704047Y-100782380D02*
X172704047Y-99782380D01*
X173180238Y-99782380D01*
X173704047Y-100210952D02*
X173608809Y-100163333D01*
X173561190Y-100115714D01*
X173513571Y-100020476D01*
X173513571Y-99972857D01*
X173561190Y-99877619D01*
X173608809Y-99830000D01*
X173704047Y-99782380D01*
X173894523Y-99782380D01*
X173989761Y-99830000D01*
X174037380Y-99877619D01*
X174085000Y-99972857D01*
X174085000Y-100020476D01*
X174037380Y-100115714D01*
X173989761Y-100163333D01*
X173894523Y-100210952D01*
X173704047Y-100210952D01*
X173608809Y-100258571D01*
X173561190Y-100306190D01*
X173513571Y-100401428D01*
X173513571Y-100591904D01*
X173561190Y-100687142D01*
X173608809Y-100734761D01*
X173704047Y-100782380D01*
X173894523Y-100782380D01*
X173989761Y-100734761D01*
X174037380Y-100687142D01*
X174085000Y-100591904D01*
X174085000Y-100401428D01*
X174037380Y-100306190D01*
X173989761Y-100258571D01*
X173894523Y-100210952D01*
X174942142Y-100115714D02*
X174942142Y-100782380D01*
X174704047Y-99734761D02*
X174465952Y-100449047D01*
X175085000Y-100449047D01*
X175418333Y-100496666D02*
X175894523Y-100496666D01*
X175323095Y-100782380D02*
X175656428Y-99782380D01*
X175989761Y-100782380D01*
%TO.C,Y1*%
X150344190Y-100716190D02*
X150820380Y-100716190D01*
X149820380Y-101049523D02*
X150344190Y-100716190D01*
X149820380Y-100382857D01*
X150820380Y-99525714D02*
X150820380Y-100097142D01*
X150820380Y-99811428D02*
X149820380Y-99811428D01*
X149963238Y-99906666D01*
X150058476Y-100001904D01*
X150106095Y-100097142D01*
%TO.C,J1*%
X180681380Y-104473333D02*
X181395666Y-104473333D01*
X181538523Y-104520952D01*
X181633761Y-104616190D01*
X181681380Y-104759047D01*
X181681380Y-104854285D01*
X181681380Y-103473333D02*
X181681380Y-104044761D01*
X181681380Y-103759047D02*
X180681380Y-103759047D01*
X180824238Y-103854285D01*
X180919476Y-103949523D01*
X180967095Y-104044761D01*
%TO.C,C2*%
X144613333Y-105767142D02*
X144565714Y-105814761D01*
X144422857Y-105862380D01*
X144327619Y-105862380D01*
X144184761Y-105814761D01*
X144089523Y-105719523D01*
X144041904Y-105624285D01*
X143994285Y-105433809D01*
X143994285Y-105290952D01*
X144041904Y-105100476D01*
X144089523Y-105005238D01*
X144184761Y-104910000D01*
X144327619Y-104862380D01*
X144422857Y-104862380D01*
X144565714Y-104910000D01*
X144613333Y-104957619D01*
X144994285Y-104957619D02*
X145041904Y-104910000D01*
X145137142Y-104862380D01*
X145375238Y-104862380D01*
X145470476Y-104910000D01*
X145518095Y-104957619D01*
X145565714Y-105052857D01*
X145565714Y-105148095D01*
X145518095Y-105290952D01*
X144946666Y-105862380D01*
X145565714Y-105862380D01*
D11*
%TO.C,R1*%
X165068000Y-101350000D02*
X165068000Y-101680000D01*
X165068000Y-98940000D02*
X158528000Y-98940000D01*
X158528000Y-101680000D02*
X158528000Y-101350000D01*
X165068000Y-99270000D02*
X165068000Y-98940000D01*
X165068000Y-101680000D02*
X158528000Y-101680000D01*
X158528000Y-98940000D02*
X158528000Y-99270000D01*
%TO.C,C1*%
X142660000Y-96420000D02*
X146900000Y-96420000D01*
X142660000Y-99160000D02*
X146900000Y-99160000D01*
X142660000Y-96420000D02*
X142660000Y-97125000D01*
X146900000Y-98455000D02*
X146900000Y-99160000D01*
X146900000Y-96420000D02*
X146900000Y-97125000D01*
X142660000Y-98455000D02*
X142660000Y-99160000D01*
%TO.C,U1*%
X154170000Y-105440000D02*
X177270000Y-105440000D01*
X154230000Y-97650000D02*
X154230000Y-99300000D01*
X154230000Y-102950000D02*
X177210000Y-102950000D01*
X154170000Y-95160000D02*
X154170000Y-105440000D01*
X154230000Y-101300000D02*
X154230000Y-102950000D01*
X177270000Y-105440000D02*
X177270000Y-95160000D01*
X177210000Y-97650000D02*
X154230000Y-97650000D01*
X177210000Y-102950000D02*
X177210000Y-97650000D01*
X177270000Y-95160000D02*
X154170000Y-95160000D01*
X154230000Y-101300000D02*
G75*
G03*
X154230000Y-99300000I0J1000000D01*
G01*
%TO.C,Y1*%
X147843000Y-97105000D02*
X147843000Y-103355000D01*
X152893000Y-97105000D02*
X152893000Y-103355000D01*
X147843000Y-103355000D02*
G75*
G03*
X152893000Y-103355000I2525000J0D01*
G01*
X152893000Y-97105000D02*
G75*
G03*
X147843000Y-97105000I-2525000J0D01*
G01*
D12*
%TO.C,J1*%
X179660000Y-111140000D02*
X179660000Y-97140000D01*
X192660000Y-111140000D02*
X188875000Y-111140000D01*
X192660000Y-97140000D02*
X188875000Y-97140000D01*
X185445000Y-111140000D02*
X179660000Y-111140000D01*
X192660000Y-97140000D02*
X192660000Y-111140000D01*
X179660000Y-97140000D02*
X185445000Y-97140000D01*
D13*
X178926000Y-102756000D02*
G75*
G03*
X178926000Y-102756000I-100000J0D01*
G01*
D11*
%TO.C,C2*%
X142660000Y-101246000D02*
X142660000Y-101951000D01*
X146900000Y-103281000D02*
X146900000Y-103986000D01*
X142660000Y-103281000D02*
X142660000Y-103986000D01*
X146900000Y-101246000D02*
X146900000Y-101951000D01*
X142660000Y-101246000D02*
X146900000Y-101246000D01*
X142660000Y-103986000D02*
X146900000Y-103986000D01*
%TD*%
M02*
