%TF.GenerationSoftware,KiCad,Pcbnew,(6.0.11)*%
%TF.CreationDate,2023-03-06T21:30:59-06:00*%
%TF.ProjectId,ps2-to-parallel-keyboard-adapter,7073322d-746f-42d7-9061-72616c6c656c,rev?*%
%TF.SameCoordinates,Original*%
%TF.FileFunction,Soldermask,Top*%
%TF.FilePolarity,Negative*%
%FSLAX46Y46*%
G04 Gerber Fmt 4.6, Leading zero omitted, Abs format (unit mm)*
G04 Created by KiCad (PCBNEW (6.0.11)) date 2023-03-06 21:30:59*
%MOMM*%
%LPD*%
G01*
G04 APERTURE LIST*
%ADD10C,1.600000*%
%ADD11O,1.600000X1.600000*%
%ADD12R,1.600000X1.600000*%
%ADD13C,1.500000*%
%ADD14R,1.408000X1.408000*%
%ADD15C,1.408000*%
%ADD16O,1.230000X2.730000*%
%ADD17O,2.730000X1.230000*%
%ADD18R,1.700000X1.700000*%
%ADD19O,1.700000X1.700000*%
G04 APERTURE END LIST*
D10*
%TO.C,R1*%
X165608000Y-100310000D03*
D11*
X157988000Y-100310000D03*
%TD*%
D10*
%TO.C,C1*%
X143530000Y-97790000D03*
X146030000Y-97790000D03*
%TD*%
D12*
%TO.C,U1*%
X155560000Y-104110000D03*
D11*
X158100000Y-104110000D03*
X160640000Y-104110000D03*
X163180000Y-104110000D03*
X165720000Y-104110000D03*
X168260000Y-104110000D03*
X170800000Y-104110000D03*
X173340000Y-104110000D03*
X175880000Y-104110000D03*
X175880000Y-96490000D03*
X173340000Y-96490000D03*
X170800000Y-96490000D03*
X168260000Y-96490000D03*
X165720000Y-96490000D03*
X163180000Y-96490000D03*
X160640000Y-96490000D03*
X158100000Y-96490000D03*
X155560000Y-96490000D03*
%TD*%
D13*
%TO.C,Y1*%
X150368000Y-97790000D03*
X150368000Y-102670000D03*
%TD*%
D14*
%TO.C,J1*%
X184160000Y-102840000D03*
D15*
X184160000Y-105440000D03*
X184160000Y-100740000D03*
X184160000Y-107540000D03*
X181660000Y-100740000D03*
X181660000Y-107540000D03*
D16*
X187960000Y-104140000D03*
D17*
X187160000Y-110890000D03*
X187160000Y-97390000D03*
%TD*%
D10*
%TO.C,C2*%
X143530000Y-102616000D03*
X146030000Y-102616000D03*
%TD*%
D18*
%TO.C,J2*%
X175880000Y-108040000D03*
D19*
X175880000Y-110580000D03*
X173340000Y-108040000D03*
X173340000Y-110580000D03*
X170800000Y-108040000D03*
X170800000Y-110580000D03*
X168260000Y-108040000D03*
X168260000Y-110580000D03*
X165720000Y-108040000D03*
X165720000Y-110580000D03*
X163180000Y-108040000D03*
X163180000Y-110580000D03*
X160640000Y-108040000D03*
X160640000Y-110580000D03*
X158100000Y-108040000D03*
X158100000Y-110580000D03*
X155560000Y-108040000D03*
X155560000Y-110580000D03*
X153020000Y-108040000D03*
X153020000Y-110580000D03*
X150480000Y-108040000D03*
X150480000Y-110580000D03*
X147940000Y-108040000D03*
X147940000Y-110580000D03*
X145400000Y-108040000D03*
X145400000Y-110580000D03*
%TD*%
M02*
