M48
; DRILL file {KiCad (6.0.11)} date Mon Mar  6 21:31:01 2023
; FORMAT={-:-/ absolute / inch / decimal}
; #@! TF.CreationDate,2023-03-06T21:31:01-06:00
; #@! TF.GenerationSoftware,Kicad,Pcbnew,(6.0.11)
; #@! TF.FileFunction,MixedPlating,1,2
FMAT,2
INCH
; #@! TA.AperFunction,Plated,PTH,ComponentDrill
T1C0.0276
; #@! TA.AperFunction,Plated,PTH,ComponentDrill
T2C0.0315
; #@! TA.AperFunction,Plated,PTH,ComponentDrill
T3C0.0354
; #@! TA.AperFunction,Plated,PTH,ComponentDrill
T4C0.0394
%
G90
G05
T2
X5.6508Y-3.85
X5.6508Y-4.04
X5.7492Y-3.85
X5.7492Y-4.04
X5.92Y-3.85
X5.92Y-4.0421
X6.1244Y-3.7988
X6.1244Y-4.0988
X6.22Y-3.9492
X6.2244Y-3.7988
X6.2244Y-4.0988
X6.3244Y-3.7988
X6.3244Y-4.0988
X6.4244Y-3.7988
X6.4244Y-4.0988
X6.52Y-3.9492
X6.5244Y-3.7988
X6.5244Y-4.0988
X6.6244Y-3.7988
X6.6244Y-4.0988
X6.7244Y-3.7988
X6.7244Y-4.0988
X6.8244Y-3.7988
X6.8244Y-4.0988
X6.9244Y-3.7988
X6.9244Y-4.0988
T3
X7.152Y-3.9661
X7.152Y-4.2339
X7.2504Y-3.9661
X7.2504Y-4.0488
X7.2504Y-4.1512
X7.2504Y-4.2339
T4
X5.7244Y-4.2535
X5.7244Y-4.3535
X5.8244Y-4.2535
X5.8244Y-4.3535
X5.9244Y-4.2535
X5.9244Y-4.3535
X6.0244Y-4.2535
X6.0244Y-4.3535
X6.1244Y-4.2535
X6.1244Y-4.3535
X6.2244Y-4.2535
X6.2244Y-4.3535
X6.3244Y-4.2535
X6.3244Y-4.3535
X6.4244Y-4.2535
X6.4244Y-4.3535
X6.5244Y-4.2535
X6.5244Y-4.3535
X6.6244Y-4.2535
X6.6244Y-4.3535
X6.7244Y-4.2535
X6.7244Y-4.3535
X6.8244Y-4.2535
X6.8244Y-4.3535
X6.9244Y-4.2535
X6.9244Y-4.3535
T1
G00X7.339Y-3.8343
M15
G01X7.398Y-3.8343
M16
G05
G00X7.339Y-4.3657
M15
G01X7.398Y-4.3657
M16
G05
G00X7.4Y-4.1295
M15
G01X7.4Y-4.0705
M16
G05
T0
M30
