%TF.GenerationSoftware,KiCad,Pcbnew,(6.0.11)*%
%TF.CreationDate,2023-03-06T21:30:59-06:00*%
%TF.ProjectId,ps2-to-parallel-keyboard-adapter,7073322d-746f-42d7-9061-72616c6c656c,rev?*%
%TF.SameCoordinates,Original*%
%TF.FileFunction,Legend,Bot*%
%TF.FilePolarity,Positive*%
%FSLAX46Y46*%
G04 Gerber Fmt 4.6, Leading zero omitted, Abs format (unit mm)*
G04 Created by KiCad (PCBNEW (6.0.11)) date 2023-03-06 21:30:59*
%MOMM*%
%LPD*%
G01*
G04 APERTURE LIST*
%ADD10C,0.150000*%
%ADD11C,0.120000*%
G04 APERTURE END LIST*
D10*
X170377238Y-106529142D02*
X170424857Y-106576761D01*
X170567714Y-106624380D01*
X170662952Y-106624380D01*
X170805809Y-106576761D01*
X170901047Y-106481523D01*
X170948666Y-106386285D01*
X170996285Y-106195809D01*
X170996285Y-106052952D01*
X170948666Y-105862476D01*
X170901047Y-105767238D01*
X170805809Y-105672000D01*
X170662952Y-105624380D01*
X170567714Y-105624380D01*
X170424857Y-105672000D01*
X170377238Y-105719619D01*
X169805809Y-106624380D02*
X169901047Y-106576761D01*
X169948666Y-106529142D01*
X169996285Y-106433904D01*
X169996285Y-106148190D01*
X169948666Y-106052952D01*
X169901047Y-106005333D01*
X169805809Y-105957714D01*
X169662952Y-105957714D01*
X169567714Y-106005333D01*
X169520095Y-106052952D01*
X169472476Y-106148190D01*
X169472476Y-106433904D01*
X169520095Y-106529142D01*
X169567714Y-106576761D01*
X169662952Y-106624380D01*
X169805809Y-106624380D01*
X169043904Y-105957714D02*
X169043904Y-106624380D01*
X169043904Y-106052952D02*
X168996285Y-106005333D01*
X168901047Y-105957714D01*
X168758190Y-105957714D01*
X168662952Y-106005333D01*
X168615333Y-106100571D01*
X168615333Y-106624380D01*
X168139142Y-105957714D02*
X168139142Y-106624380D01*
X168139142Y-106052952D02*
X168091523Y-106005333D01*
X167996285Y-105957714D01*
X167853428Y-105957714D01*
X167758190Y-106005333D01*
X167710571Y-106100571D01*
X167710571Y-106624380D01*
X166853428Y-106576761D02*
X166948666Y-106624380D01*
X167139142Y-106624380D01*
X167234380Y-106576761D01*
X167282000Y-106481523D01*
X167282000Y-106100571D01*
X167234380Y-106005333D01*
X167139142Y-105957714D01*
X166948666Y-105957714D01*
X166853428Y-106005333D01*
X166805809Y-106100571D01*
X166805809Y-106195809D01*
X167282000Y-106291047D01*
X165948666Y-106576761D02*
X166043904Y-106624380D01*
X166234380Y-106624380D01*
X166329619Y-106576761D01*
X166377238Y-106529142D01*
X166424857Y-106433904D01*
X166424857Y-106148190D01*
X166377238Y-106052952D01*
X166329619Y-106005333D01*
X166234380Y-105957714D01*
X166043904Y-105957714D01*
X165948666Y-106005333D01*
X165662952Y-105957714D02*
X165282000Y-105957714D01*
X165520095Y-105624380D02*
X165520095Y-106481523D01*
X165472476Y-106576761D01*
X165377238Y-106624380D01*
X165282000Y-106624380D01*
X164329619Y-105957714D02*
X163948666Y-105957714D01*
X164186761Y-105624380D02*
X164186761Y-106481523D01*
X164139142Y-106576761D01*
X164043904Y-106624380D01*
X163948666Y-106624380D01*
X163472476Y-106624380D02*
X163567714Y-106576761D01*
X163615333Y-106529142D01*
X163662952Y-106433904D01*
X163662952Y-106148190D01*
X163615333Y-106052952D01*
X163567714Y-106005333D01*
X163472476Y-105957714D01*
X163329619Y-105957714D01*
X163234380Y-106005333D01*
X163186761Y-106052952D01*
X163139142Y-106148190D01*
X163139142Y-106433904D01*
X163186761Y-106529142D01*
X163234380Y-106576761D01*
X163329619Y-106624380D01*
X163472476Y-106624380D01*
X161662952Y-105624380D02*
X161662952Y-106338666D01*
X161710571Y-106481523D01*
X161805809Y-106576761D01*
X161948666Y-106624380D01*
X162043904Y-106624380D01*
X161234380Y-105719619D02*
X161186761Y-105672000D01*
X161091523Y-105624380D01*
X160853428Y-105624380D01*
X160758190Y-105672000D01*
X160710571Y-105719619D01*
X160662952Y-105814857D01*
X160662952Y-105910095D01*
X160710571Y-106052952D01*
X161282000Y-106624380D01*
X160662952Y-106624380D01*
X159329619Y-106624380D02*
X159424857Y-106576761D01*
X159472476Y-106529142D01*
X159520095Y-106433904D01*
X159520095Y-106148190D01*
X159472476Y-106052952D01*
X159424857Y-106005333D01*
X159329619Y-105957714D01*
X159186761Y-105957714D01*
X159091523Y-106005333D01*
X159043904Y-106052952D01*
X158996285Y-106148190D01*
X158996285Y-106433904D01*
X159043904Y-106529142D01*
X159091523Y-106576761D01*
X159186761Y-106624380D01*
X159329619Y-106624380D01*
X158567714Y-105957714D02*
X158567714Y-106624380D01*
X158567714Y-106052952D02*
X158520095Y-106005333D01*
X158424857Y-105957714D01*
X158282000Y-105957714D01*
X158186761Y-106005333D01*
X158139142Y-106100571D01*
X158139142Y-106624380D01*
X156567714Y-106100571D02*
X156901047Y-106100571D01*
X156901047Y-106624380D02*
X156901047Y-105624380D01*
X156424857Y-105624380D01*
X155662952Y-106576761D02*
X155758190Y-106624380D01*
X155948666Y-106624380D01*
X156043904Y-106576761D01*
X156091523Y-106481523D01*
X156091523Y-106100571D01*
X156043904Y-106005333D01*
X155948666Y-105957714D01*
X155758190Y-105957714D01*
X155662952Y-106005333D01*
X155615333Y-106100571D01*
X155615333Y-106195809D01*
X156091523Y-106291047D01*
X155186761Y-106624380D02*
X155186761Y-105957714D01*
X155186761Y-106148190D02*
X155139142Y-106052952D01*
X155091523Y-106005333D01*
X154996285Y-105957714D01*
X154901047Y-105957714D01*
X154139142Y-105957714D02*
X154139142Y-106767238D01*
X154186761Y-106862476D01*
X154234380Y-106910095D01*
X154329619Y-106957714D01*
X154472476Y-106957714D01*
X154567714Y-106910095D01*
X154139142Y-106576761D02*
X154234380Y-106624380D01*
X154424857Y-106624380D01*
X154520095Y-106576761D01*
X154567714Y-106529142D01*
X154615333Y-106433904D01*
X154615333Y-106148190D01*
X154567714Y-106052952D01*
X154520095Y-106005333D01*
X154424857Y-105957714D01*
X154234380Y-105957714D01*
X154139142Y-106005333D01*
X153234380Y-105957714D02*
X153234380Y-106624380D01*
X153662952Y-105957714D02*
X153662952Y-106481523D01*
X153615333Y-106576761D01*
X153520095Y-106624380D01*
X153377238Y-106624380D01*
X153282000Y-106576761D01*
X153234380Y-106529142D01*
X152805809Y-106576761D02*
X152710571Y-106624380D01*
X152520095Y-106624380D01*
X152424857Y-106576761D01*
X152377238Y-106481523D01*
X152377238Y-106433904D01*
X152424857Y-106338666D01*
X152520095Y-106291047D01*
X152662952Y-106291047D01*
X152758190Y-106243428D01*
X152805809Y-106148190D01*
X152805809Y-106100571D01*
X152758190Y-106005333D01*
X152662952Y-105957714D01*
X152520095Y-105957714D01*
X152424857Y-106005333D01*
X151805809Y-106624380D02*
X151901047Y-106576761D01*
X151948666Y-106529142D01*
X151996285Y-106433904D01*
X151996285Y-106148190D01*
X151948666Y-106052952D01*
X151901047Y-106005333D01*
X151805809Y-105957714D01*
X151662952Y-105957714D01*
X151567714Y-106005333D01*
X151520095Y-106052952D01*
X151472476Y-106148190D01*
X151472476Y-106433904D01*
X151520095Y-106529142D01*
X151567714Y-106576761D01*
X151662952Y-106624380D01*
X151805809Y-106624380D01*
X151043904Y-105957714D02*
X151043904Y-106624380D01*
X151043904Y-106052952D02*
X150996285Y-106005333D01*
X150901047Y-105957714D01*
X150758190Y-105957714D01*
X150662952Y-106005333D01*
X150615333Y-106100571D01*
X150615333Y-106624380D01*
X178149285Y-108402380D02*
X178720714Y-108402380D01*
X178435000Y-108402380D02*
X178435000Y-107402380D01*
X178530238Y-107545238D01*
X178625476Y-107640476D01*
X178720714Y-107688095D01*
X178720714Y-110037619D02*
X178673095Y-109990000D01*
X178577857Y-109942380D01*
X178339761Y-109942380D01*
X178244523Y-109990000D01*
X178196904Y-110037619D01*
X178149285Y-110132857D01*
X178149285Y-110228095D01*
X178196904Y-110370952D01*
X178768333Y-110942380D01*
X178149285Y-110942380D01*
%TO.C,J2*%
X160861333Y-112482380D02*
X160861333Y-113196666D01*
X160908952Y-113339523D01*
X161004190Y-113434761D01*
X161147047Y-113482380D01*
X161242285Y-113482380D01*
X160432761Y-112577619D02*
X160385142Y-112530000D01*
X160289904Y-112482380D01*
X160051809Y-112482380D01*
X159956571Y-112530000D01*
X159908952Y-112577619D01*
X159861333Y-112672857D01*
X159861333Y-112768095D01*
X159908952Y-112910952D01*
X160480380Y-113482380D01*
X159861333Y-113482380D01*
D11*
X145760000Y-109530000D02*
X145760000Y-109090000D01*
X150120000Y-112040000D02*
X150120000Y-111630000D01*
X154290000Y-120670000D02*
X154290000Y-112040000D01*
X176145240Y-120670000D02*
X176145240Y-112040000D01*
X166990000Y-120670000D02*
X166990000Y-112040000D01*
X175790955Y-120670000D02*
X175790955Y-112040000D01*
X158460000Y-109530000D02*
X158460000Y-109090000D01*
X146670000Y-120670000D02*
X146670000Y-112040000D01*
X175909050Y-120670000D02*
X175909050Y-112040000D01*
X174846195Y-120670000D02*
X174846195Y-112040000D01*
X164450000Y-120670000D02*
X164450000Y-112040000D01*
X170440000Y-112040000D02*
X170440000Y-111630000D01*
X155200000Y-109530000D02*
X155200000Y-109090000D01*
X177210000Y-108040000D02*
X177210000Y-106930000D01*
X175520000Y-112040000D02*
X175520000Y-111630000D01*
X169530000Y-120670000D02*
X169530000Y-112040000D01*
X172070000Y-120670000D02*
X172070000Y-112040000D01*
X166080000Y-112040000D02*
X166080000Y-111630000D01*
X175672860Y-120670000D02*
X175672860Y-112040000D01*
X161910000Y-120670000D02*
X161910000Y-112040000D01*
X163540000Y-112040000D02*
X163540000Y-111630000D01*
X176617620Y-120670000D02*
X176617620Y-112040000D01*
X168620000Y-112040000D02*
X168620000Y-111630000D01*
X172980000Y-112040000D02*
X172980000Y-111630000D01*
X156830000Y-120670000D02*
X156830000Y-112040000D01*
X159370000Y-120670000D02*
X159370000Y-112040000D01*
X161000000Y-109530000D02*
X161000000Y-109090000D01*
X150840000Y-112040000D02*
X150840000Y-111630000D01*
X157740000Y-109530000D02*
X157740000Y-109090000D01*
X174610000Y-120670000D02*
X174610000Y-112040000D01*
X155920000Y-109530000D02*
X155920000Y-109090000D01*
X145040000Y-109530000D02*
X145040000Y-109090000D01*
X151750000Y-120670000D02*
X151750000Y-112040000D01*
X147580000Y-109530000D02*
X147580000Y-109090000D01*
X155920000Y-112040000D02*
X155920000Y-111630000D01*
X172980000Y-109530000D02*
X172980000Y-109090000D01*
X148300000Y-109530000D02*
X148300000Y-109090000D01*
X150840000Y-109530000D02*
X150840000Y-109090000D01*
X170440000Y-109530000D02*
X170440000Y-109090000D01*
X162820000Y-112040000D02*
X162820000Y-111630000D01*
X173700000Y-112040000D02*
X173700000Y-111630000D01*
X153380000Y-109530000D02*
X153380000Y-109090000D01*
X177210000Y-120670000D02*
X177210000Y-112040000D01*
X175200480Y-120670000D02*
X175200480Y-112040000D01*
X157740000Y-112040000D02*
X157740000Y-111630000D01*
X176240000Y-112040000D02*
X176240000Y-111630000D01*
X160280000Y-112040000D02*
X160280000Y-111630000D01*
X155200000Y-112040000D02*
X155200000Y-111630000D01*
X176735715Y-120670000D02*
X176735715Y-112040000D01*
X177210000Y-106930000D02*
X175880000Y-106930000D01*
X171160000Y-112040000D02*
X171160000Y-111630000D01*
X171160000Y-109530000D02*
X171160000Y-109090000D01*
X165360000Y-112040000D02*
X165360000Y-111630000D01*
X176381430Y-120670000D02*
X176381430Y-112040000D01*
X160280000Y-109530000D02*
X160280000Y-109090000D01*
X175554765Y-120670000D02*
X175554765Y-112040000D01*
X167900000Y-112040000D02*
X167900000Y-111630000D01*
X161000000Y-112040000D02*
X161000000Y-111630000D01*
X152660000Y-112040000D02*
X152660000Y-111630000D01*
X176240000Y-109530000D02*
X176240000Y-109150000D01*
X145040000Y-112040000D02*
X145040000Y-111630000D01*
X148300000Y-112040000D02*
X148300000Y-111630000D01*
X175520000Y-109530000D02*
X175520000Y-109150000D01*
X176853810Y-120670000D02*
X176853810Y-112040000D01*
X175082385Y-120670000D02*
X175082385Y-112040000D01*
X147580000Y-112040000D02*
X147580000Y-111630000D01*
X177210000Y-112040000D02*
X144070000Y-112040000D01*
X162820000Y-109530000D02*
X162820000Y-109090000D01*
X173700000Y-109530000D02*
X173700000Y-109090000D01*
X149210000Y-120670000D02*
X149210000Y-112040000D01*
X177090000Y-120670000D02*
X177090000Y-112040000D01*
X153380000Y-112040000D02*
X153380000Y-111630000D01*
X158460000Y-112040000D02*
X158460000Y-111630000D01*
X166080000Y-109530000D02*
X166080000Y-109090000D01*
X168620000Y-109530000D02*
X168620000Y-109090000D01*
X176971905Y-120670000D02*
X176971905Y-112040000D01*
X176499525Y-120670000D02*
X176499525Y-112040000D01*
X152660000Y-109530000D02*
X152660000Y-109090000D01*
X174728100Y-120670000D02*
X174728100Y-112040000D01*
X175436670Y-120670000D02*
X175436670Y-112040000D01*
X150120000Y-109530000D02*
X150120000Y-109090000D01*
X174964290Y-120670000D02*
X174964290Y-112040000D01*
X145760000Y-112040000D02*
X145760000Y-111630000D01*
X177210000Y-120670000D02*
X144070000Y-120670000D01*
X167900000Y-109530000D02*
X167900000Y-109090000D01*
X176027145Y-120670000D02*
X176027145Y-112040000D01*
X144070000Y-120670000D02*
X144070000Y-112040000D01*
X176263335Y-120670000D02*
X176263335Y-112040000D01*
X165360000Y-109530000D02*
X165360000Y-109090000D01*
X163540000Y-109530000D02*
X163540000Y-109090000D01*
X175318575Y-120670000D02*
X175318575Y-112040000D01*
%TD*%
M02*
